<svg class="bob" font-family="arial" font-size="14" height="288" width="424" xmlns="http://www.w3.org/2000/svg">
<defs>
<marker id="triangle" markerHeight="8" markerWidth="8" orient="auto" refX="4" refY="2" viewBox="0 0 8 4">
<polygon class="fg_fill" points="0,0 0,4 8,2 0,0"/>
</marker>
<marker id="clear_triangle" markerHeight="10" markerWidth="10" orient="auto" refX="1" refY="7" viewBox="0 0 20 14">
<polygon class="bg_fill fg_stroke" points="2,2 2,12 18,7 2,2"/>
</marker>
<marker id="circle" markerHeight="5" markerWidth="5" orient="auto" refX="10" refY="10" viewBox="0 0 20 20">
<circle class="fg_fill" cx="10" cy="10" r="8"/>
</marker>
<marker id="square" markerHeight="5" markerWidth="5" orient="auto" refX="10" refY="10" viewBox="0 0 20 20">
<rect class="fg_fill" height="20" width="20" x="0" y="0"/>
</marker>
<marker id="open_circle" markerHeight="10" markerWidth="10" orient="auto" refX="10" refY="10" viewBox="0 0 20 20">
<circle class="bg_fill fg_stroke" cx="10" cy="10" r="4"/>
</marker>
<marker id="big_open_circle" markerHeight="20" markerWidth="20" orient="auto" refX="20" refY="20" viewBox="0 0 40 40">
<circle class="bg_fill fg_stroke" cx="20" cy="20" r="6"/>
</marker>
</defs>
<style type="text/css">

rect.backdrop {
    fill: white;
}

.fg_fill {
    fill: black;
}


.bg_fill {
    fill: white;
}

.fg_stroke {
    stroke: black;
    stroke-width: 2;
}

.no_fill {
    fill: none;
}

.dashed {
    stroke-dasharray: 5;
}


text{
    fill: black;
}

line, path {
    stroke-linecap: round;
    stroke-linejoin: miter;
    stroke-opacity: 1;
    fill-opacity: 1;
}




tspan.head{
    fill: none;
    stroke: none;
}
    
</style>
<rect class="backdrop" height="288" width="424" x="0" y="0"/>
<g>
<line class="fg_stroke" x1="76" x2="76" y1="24" y2="248"/>
<line class="fg_stroke" x1="76" x2="180" y1="24" y2="24"/>
<line class="fg_stroke" x1="76" x2="180" y1="248" y2="248"/>
<line class="fg_stroke" x1="180" x2="180" y1="24" y2="56"/>
<line class="fg_stroke" x1="180" x2="180" y1="56" y2="72"/>
<line class="fg_stroke" x1="180" x2="376" y1="56" y2="56"/>
<line class="fg_stroke" x1="180" x2="180" y1="72" y2="200"/>
<line class="fg_stroke" x1="180" x2="360" y1="72" y2="72"/>
<line class="fg_stroke" x1="180" x2="180" y1="200" y2="216"/>
<line class="fg_stroke" x1="180" x2="360" y1="200" y2="200"/>
<line class="fg_stroke" x1="180" x2="180" y1="216" y2="248"/>
<line class="fg_stroke" x1="180" x2="376" y1="216" y2="216"/>
<path class="fg_stroke no_fill" d="M 360 200 A 4 4 0 0 0 364 196"/>
<path class="fg_stroke no_fill" d="M 364 76 A 4 4 0 0 0 360 72"/>
<path class="fg_stroke no_fill" d="M 376 216 A 4 4 0 0 0 380 212"/>
<path class="fg_stroke no_fill" d="M 380 60 A 4 4 0 0 0 376 56"/>
</g>
<g>
<line class="fg_stroke" x1="340" x2="340" y1="104" y2="168"/>
<line class="fg_stroke" x1="340" x2="364" y1="104" y2="104"/>
<line class="fg_stroke" x1="340" x2="364" y1="168" y2="168"/>
<line class="fg_stroke" x1="364" x2="364" y1="76" y2="104"/>
<line class="fg_stroke" x1="364" x2="380" y1="104" y2="104"/>
<line class="fg_stroke" x1="364" x2="364" y1="168" y2="196"/>
<line class="fg_stroke" x1="364" x2="380" y1="168" y2="168"/>
<line class="fg_stroke" x1="380" x2="380" y1="60" y2="104"/>
<line class="fg_stroke" x1="380" x2="420" y1="104" y2="104"/>
<line class="fg_stroke" x1="380" x2="380" y1="168" y2="212"/>
<line class="fg_stroke" x1="380" x2="420" y1="168" y2="168"/>
<line class="fg_stroke" x1="420" x2="420" y1="104" y2="168"/>
</g>
<g>
<text class="fg_fill" x="97" y="140">
NodeMCU
</text>
</g>
<g>
<text class="fg_fill" x="193" y="44">
D1
</text>
</g>
<g>
<text class="fg_fill" x="193" y="92">
D2
</text>
</g>
<g>
<text class="fg_fill" x="193" y="188">
3V
</text>
</g>
<g>
<text class="fg_fill" x="193" y="236">
GND
</text>
</g>
<g>
<text class="fg_fill" x="329" y="92">
SDA
</text>
</g>
<g>
<text class="fg_fill" x="329" y="188">
VIN
</text>
</g>
<g>
<text class="fg_fill" x="353" y="140">
Si7021
</text>
</g>
<g>
<text class="fg_fill" x="393" y="92">
SCL
</text>
</g>
<g>
<text class="fg_fill" x="393" y="188">
GND
</text>
</g>
</svg>